<svg width="0" height="0" class="hidden">
    <symbol fill="none" xmlns="http://www.w3.org/2000/svg" viewBox="0 0 21 21" id="camera">
        <rect x="2.064" y="2.5" width="15.946" height="15.946" rx="4.983" stroke="#000" stroke-width=".997"></rect>
        <rect x="6.494" y="6.93" width="6.976" height="6.976" rx="3.488" stroke="#000" stroke-width=".997"></rect>
        <rect x="13.581" y="5.158" width=".997" height=".997" rx=".498" stroke="#000" stroke-width=".997"></rect>
    </symbol>
    <symbol fill="none" xmlns="http://www.w3.org/2000/svg" viewBox="0 0 21 21" id="cart">
        <path d="M5.932 6.566h10.963l.997 11.881H4.936l.996-11.881z" stroke="#000" stroke-width=".997"></path>
        <path d="M14.58 8.442V5.57a3.069 3.069 0 00-3.07-3.07v0a3.069 3.069 0 00-3.067 3.07v2.872" stroke="#000" stroke-width=".997" stroke-linecap="round" stroke-linejoin="round"></path>
    </symbol>
    <symbol fill="none" xmlns="http://www.w3.org/2000/svg" viewBox="0 0 21 21" id="like">
        <path clip-rule="evenodd" d="M16.994 4.653a3.69 3.69 0 00-2.68-1.155 3.692 3.692 0 00-2.682 1.155l-1.477 1.531L8.68 4.653a3.692 3.692 0 00-2.681-1.155 3.692 3.692 0 00-2.681 1.155c-1.513 1.568-1.512 4.142 0 5.709l6.838 7.088 6.84-7.088c1.511-1.567 1.512-4.141 0-5.71z" stroke="#000" stroke-width=".997"></path>
    </symbol>
    <symbol fill="none" xmlns="http://www.w3.org/2000/svg" viewBox="0 0 19 14" id="menu">
        <path fill="#000" d="M.524.508h17.939v.997H.524zm0 5.98h17.939v.997H.524zm0 5.98h17.939v.997H.524z"></path>
    </symbol>
    <symbol fill="none" xmlns="http://www.w3.org/2000/svg" viewBox="0 0 120 16" id="logo">
        <g clip-path="url(#clip0)" fill="#000">
            <path d="M16.084.994c-1.595.214-1.986.428-2.86 2.562-.641 1.563-3.931 9.504-5.1 12.444H7.34C5.934 12.184 3.885 6.637 2.525 3.128 1.863 1.373 1.453 1.136 0 .994V.336h6.053v.658c-1.764.191-1.86.474-1.526 1.353.596 1.729 2.337 6.447 3.836 10.384 1.264-3.058 2.836-6.914 3.971-9.91.523-1.376.239-1.59-1.717-1.827V.336h5.48l-.013.658zM26.227 15.74v-.658c1.953-.211 2.145-.307 2.145-2.305V3.342c0-2.038-.192-2.134-2.145-2.348V.336h6.388v.658c-1.986.214-2.171.31-2.171 2.348v9.412c0 2.038.192 2.11 2.17 2.305v.658l-6.387.023zm30.649.19c-.307 0-.572-.025-.88-.048-1.74-.119-2.67-.57-3.72-2.038-.88-1.209-1.737-2.703-2.502-3.911-.476-.761-.784-.903-1.986-.903h-.837v3.724c0 2.015.265 2.133 2.171 2.304v.659h-6.377v-.659c1.986-.21 2.144-.306 2.144-2.304V3.295c0-2.014-.261-2.087-2.144-2.304V.333h6.076c1.74 0 2.91.214 3.813.806a3.53 3.53 0 011.621 3.131c0 2.038-1.324 3.318-3.074 4.076.43.737 1.453 2.324 2.17 3.39a21.829 21.829 0 001.88 2.443 3.427 3.427 0 001.741 1.09l-.096.662zm-8.793-7.716c1.241 0 2.026-.188 2.621-.685.93-.688 1.324-1.646 1.324-2.917 0-2.538-1.691-3.46-3.525-3.46-.691 0-1.098.092-1.264.237-.215.165-.288.402-.288 1.018v5.807h1.132zM84.02.994c-1.522.168-2.025.405-2.094 1.495-.027.757-.073 1.755-.073 3.95v9.509h-.907L70.749 3.556v5.926c0 2.133.07 3.2.12 3.888.046 1.208.641 1.564 2.356 1.705v.659h-5.788v-.659c1.476-.118 2.048-.474 2.144-1.646.07-.76.12-1.827.12-3.984v-6.03c0-.66-.05-1.045-.477-1.568-.454-.593-.954-.734-2.122-.853V.336h3.575L80.78 12.26V6.446c0-2.202-.046-3.223-.119-3.934-.073-1.067-.619-1.4-2.525-1.518V.336h5.884v.658zm19.973 14.746v-.659c1.548-.187 1.737-.424 1.406-1.316-.331-.893-.788-2.11-1.287-3.602h-5.15c-.38 1.067-.738 1.975-1.072 2.963-.523 1.54-.189 1.728 1.764 1.975v.659H94.15v-.66c1.503-.187 1.883-.355 2.717-2.489L101.798.168l.765-.142c1.499 4.053 3.144 8.534 4.633 12.636.761 2.06.976 2.252 2.668 2.44v.658l-5.871-.02zM101.61 3.105a1373.77 1373.77 0 01-2.29 6.067h4.457l-2.167-6.067z"></path>
        </g>
        <defs>
            <clipPath id="clip0">
                <path fill="#fff" d="M0 0h120v16H0z"></path>
            </clipPath>
        </defs>
    </symbol>
    <symbol fill="none" xmlns="http://www.w3.org/2000/svg" viewBox="0 0 65 20" id="sub-logo">
        <path fill-rule="evenodd" clip-rule="evenodd" d="M12.103 5c-2.845 0-4.928 2.093-4.928 5 0 1.133.318 2.133.877 2.947H.978c-.546 0-.978.466-.978 1.026V15h12.116c2.845 0 4.915-2.093 4.915-5-.013-2.907-2.07-5-4.928-5zm-.013 8.253c-1.701 0-2.946-1.346-2.946-3.253 0-1.88 1.232-3.253 2.946-3.253 1.728 0 2.96 1.373 2.96 3.253 0 1.907-1.232 3.253-2.96 3.253zM28.69 10c0 2.907-2.058 5-4.915 5-2.845 0-4.928-2.093-4.928-5s2.083-5 4.928-5c2.845 0 4.915 2.093 4.915 5zm-7.874 0c0 1.907 1.232 3.253 2.946 3.253 1.727 0 2.96-1.346 2.96-3.253 0-1.88-1.233-3.253-2.96-3.253-1.714 0-2.946 1.373-2.946 3.253zm18.276-.747v4.72h-.038V15h-.978c-.534 0-.978-.453-.978-1.027v-4.72c0-1.546-.914-2.56-2.324-2.56-1.41 0-2.324 1.027-2.324 2.56V15h-.978c-.534 0-.978-.453-.978-1.027v-4.72c0-2.533 1.74-4.253 4.28-4.253 2.565 0 4.318 1.72 4.318 4.253zm10.4-3.426V5h-.965c-.546 0-.978.467-.978 1.027v4.733c0 1.533-.94 2.533-2.35 2.533-1.409 0-2.323-1-2.323-2.533V5h-.966c-.546 0-.978.453-.978 1.027v4.746c0 2.52 1.74 4.227 4.293 4.227 2.54 0 4.28-1.72 4.28-4.227V6.227l-.013-.4zm8.675 1.026C58.74 5.693 59.907 5 61.393 5c2.184 0 3.62 1.533 3.607 3.867V15h-.978c-.533 0-.978-.453-.978-1.027v-5.16c0-1.293-.762-2.173-1.943-2.173s-1.968.88-1.968 2.173V15h-.966c-.533 0-.978-.453-.978-1.027v-5.16c0-1.293-.787-2.173-1.968-2.173s-1.943.88-1.943 2.173v6.174H52.3c-.533 0-.978-.454-.978-1.027V8.867c0-2.334 1.422-3.867 3.62-3.867 1.485 0 2.654.693 3.225 1.853z" fill="#000"></path>
    </symbol>
</svg>