<svg width="77" height="528" xmlns="http://www.w3.org/2000/svg"><path d="M72.049 77.197c-1.027-7.656-2.055-9.53-12.298-13.724-7.508-3.081-45.635-18.87-59.75-24.477V35.23c18.32-6.75 44.955-16.583 61.805-23.111C70.231 8.943 71.369 6.973 72.049 0h3.161v29.052H72.05c-.917-8.466-2.276-8.927-6.497-7.322-8.298 2.859-30.95 11.214-49.855 18.41 14.684 6.067 33.195 13.612 47.58 19.06 6.606 2.51 7.634 1.144 8.772-8.243h3.161V77.26l-3.161-.064zM1.249 125.881H4.41c1.012 9.372 1.47 10.293 11.065 10.293H60.78c9.784 0 10.243-.921 11.27-10.293h3.161v30.657H72.05c-1.027-9.531-1.486-10.42-11.27-10.42H15.586c-9.785 0-10.132.921-11.065 10.42H1.36l-.111-30.657zM.331 272.985c0-1.477.127-2.748.237-4.225.57-8.355 2.735-12.819 9.785-17.854 5.801-4.225 12.978-8.339 18.779-12.008 3.651-2.288 4.33-3.765 4.33-9.531v-4.019H15.586c-9.674 0-10.243 1.271-11.065 10.421H1.359V205.16H4.52c1.012 9.53 1.47 10.293 11.065 10.293h45.414c9.674 0 10.022-1.255 11.065-10.293h3.161v29.163c0 8.355-1.027 13.962-3.872 18.299a17.06 17.06 0 0 1-6.487 5.9 16.958 16.958 0 0 1-8.546 1.883c-9.785 0-15.934-6.354-19.57-14.757-3.54 2.065-11.16 6.974-16.28 10.421a104.774 104.774 0 0 0-11.73 9.022 16.447 16.447 0 0 0-5.232 8.355l-3.177-.461zm37.052-42.204c0 5.956.901 9.721 3.288 12.58 3.304 4.464 7.904 6.354 14.005 6.354 12.187 0 16.613-8.117 16.613-16.917 0-3.32-.442-5.273-1.138-6.068-.79-1.032-1.928-1.382-4.884-1.382H37.383v5.433zM72.049 403.266c-.806-7.307-1.944-9.722-7.176-10.055-3.636-.127-8.426-.35-18.969-.35H.253v-4.352l59.498-48.939H31.298c-10.243 0-15.364.333-18.668.572-5.801.222-7.508 3.081-8.188 11.309H1.28V323.67h3.16c.57 7.084 2.277 9.832 7.904 10.293 3.652.333 8.774.572 19.127.572h28.959c3.161 0 5.01-.239 7.524-2.288 2.845-2.176 3.525-4.574 4.094-10.182h3.161v17.155l-57.253 48.495h27.915c10.575 0 15.476-.222 18.89-.572 5.121-.349 6.718-2.97 7.287-12.12h3.161v28.243H72.05zM1.25 499.125h3.16c.902 7.434 2.04 8.34 6.324 6.751 4.283-1.588 10.132-3.78 17.293-6.179v-24.716c-5.122-1.826-9.485-3.542-14.227-5.146-7.398-2.51-8.299-.906-9.484 8.466H1.154v-26.415h3.162c.9 7.211 1.707 9.038 11.95 13.041l59.751 23.667.68 3.669a10986.953 10986.953 0 0 1-60.668 22.238c-9.895 3.654-10.812 4.686-11.713 12.803H1.154l.095-28.179zm60.667-11.436a5829.83 5829.83 0 0 1-29.132-10.992v21.396l29.132-10.404z" fill="#D7969E"/></svg>